{
  "title": "Pacific Rim (2013) DVDRip XviD-MAX",
  "uid": 8984194,
  "size": 1696415085,
  "categoryP": "video",
  "categoryS": "movies",
  "magnet": "?xt=urn:btih:610c3141db0c15eb07adbe91509a72cb374d6b9f&amp;dn=Pacific+Rim+%282013%29+DVDRip+XviD-MAX&amp;tr=udp%3A%2F%2Ftracker.openbittorrent.com%3A80&amp;tr=udp%3A%2F%2Fopen.demonii.com%3A1337&amp;tr=udp%3A%2F%2Ftracker.coppersurfer.tk%3A6969&amp;tr=udp%3A%2F%2Fexodus.desync.com%3A6969",
  "seeders": 38,
  "leechers": 10,
  "uploader": "extremezone",
  "files": -1,
  "time": 1380589122,
  "description": " &lt;a href=&quot;http://img10.imageshack.us/img10/5334/gil9.jpg&quot; rel=&quot;nofollow&quot; target=&quot;_NEW&quot;&gt;http://img10.imageshack.us/img10/5334/gil9.jpg&lt;/a&gt;\n\nScreens:\n &lt;a href=&quot;\nhttp://img13.imageshack.us/img13/2079/ovdi.jpg&quot; rel=&quot;nofollow&quot; target=&quot;_NEW&quot;&gt;\nhttp://img13.imageshack.us/img13/2079/ovdi.jpg&lt;/a&gt; &lt;a href=&quot;\nhttp://img9.imageshack.us/img9/9939/c0fd.jpg&quot; rel=&quot;nofollow&quot; target=&quot;_NEW&quot;&gt;\nhttp://img9.imageshack.us/img9/9939/c0fd.jpg&lt;/a&gt; &lt;a href=&quot;\nhttp://img138.imageshack.us/img138/6094/kcw5.jpg&quot; rel=&quot;nofollow&quot; target=&quot;_NEW&quot;&gt;\nhttp://img138.imageshack.us/img138/6094/kcw5.jpg&lt;/a&gt; &lt;a href=&quot;\nhttp://img443.imageshack.us/img443/6084/w4kd.jpg&quot; rel=&quot;nofollow&quot; target=&quot;_NEW&quot;&gt;\nhttp://img443.imageshack.us/img443/6084/w4kd.jpg&lt;/a&gt;\n\nScreenCaps:\n &lt;a href=&quot;\nhttp://cdn.piczend.com/images/DSb5X1VE/1380624616_screencaps.jpeg&quot; rel=&quot;nofollow&quot; target=&quot;_NEW&quot;&gt;\nhttp://cdn.piczend.com/images/DSb5X1VE/1380624616_screencaps.jpeg&lt;/a&gt;\n\nPacific Rim (2013) DVDRip XviD-MAX\nFormat                                   : AVI\nFormat/Info                              : Audio Video Interleave\nFormat profile                           : OpenDML\nFormat settings                          : rec\nFile size                                : 1.57 GiB\nDuration                                 : 2h 11mn\nOverall bit rate                         : 1 715 Kbps\nWriting application                      : VirtualDubMod 1.5.10.2 (build 2542/release)\nWriting library                          : VirtualDubMod build 2542/release\nOriginal source form                     : MAX TORRENTZ\nCopyright                                : SIGISMUNT\n\nVideo\nID                                       : 0\nFormat                                   : MPEG-4 Visual\nFormat profile                           : Advanced Simple@L5\nFormat settings, BVOP                    : 1\nFormat settings, QPel                    : No\nFormat settings, GMC                     : No warppoints\nFormat settings, Matrix                  : Custom\nCodec ID                                 : XVID\nCodec ID/Hint                            : XviD\nDuration                                 : 2h 11mn\nBit rate                                 : 1 389 Kbps\nWidth                                    : 720 pixels\nHeight                                   : 400 pixels\nDisplay aspect ratio                     : 16:9\nFrame rate                               : 23.976 fps\nColor space                              : YUV\nChroma subsampling                       : 4:2:0\nBit depth                                : 8 bits\nScan type                                : Progressive\nCompression mode                         : Lossy\nBits/(Pixel*Frame)                       : 0.201\nStream size                              : 1.27 GiB (81%)\nWriting library                          : XviD 1.2.1 (UTC 2008-12-04)\n\nAudio\nID                                       : 1\nFormat                                   : AC-3\nFormat/Info                              : Audio Coding 3\nMode extension                           : CM (complete main)\nFormat settings, Endianness              : Big\nCodec ID                                 : 2000\nDuration                                 : 2h 11mn\nBit rate mode                            : Constant\nBit rate                                 : 320 Kbps\nChannel(s)                               : 6 channels\nChannel positions                        : Front: L C R, Side: L R, LFE\nSampling rate                            : 48.0 KHz\nBit depth                                : 16 bits\nCompression mode                         : Lossy\nStream size                              : 300 MiB (19%)\nAlignment                                : Aligned on interleaves\nInterleave, duration                     : 64 ms (1.53 video frames)\nInterleave, preload duration             : 192 ms\n\nSource: WEBDL DVD (perfect a/v/sync quality,sample included)\nThis torrent is not seedbox supported,please seed it to the MAX\n\nNote:If you have something to offer as early releases,seedboxes,\nlinks,accounts,etc please contact us on torentz 3xforum ro\n\nPacific Rim (2013) DVDRip XviD-MAX Torrent Free Download\n &lt;a href=&quot;\nhttp://thepiratebay.se/user/extremezone/0/7/0&quot; rel=&quot;nofollow&quot; target=&quot;_NEW&quot;&gt;\nhttp://thepiratebay.se/user/extremezone/0/7/0&lt;/a&gt;\n\nHow To Get Your MAXSPEED (uTorrent)\n\nTorrent Client - Preferences - Bandwidth - Number of connections - Set aprox. 500 for each\nTorrent Client - Preferences - BiTorrent - Protocol Encryption - Forced\nBandwidth Allocation - High (Set download/upload limit - Unlimited)\nStop Other Active Torrents - Start downloading and wait for connections.\nEnjoy and Seed for at least 1:1 ratio. Don't forget to say thanks/leave reviews.\nBefore downloading you should check/google search sample &quot;release name&quot;&quot;sample&quot;.\nGreets to all actual/future p2p/scene QUALITY groups and affiliate websites.\nDon't trust IMDb robot or bad ratings,always watch some trailers first.\nIgnore stupid comments/fake/mislabeled/no-DVDrips/CAM/TS/RAR uploads.\nPlease spread this release/torrent to your friends/forums/etc.\nIf you need translation subs visit some subtitles sites.\nReport if you see online streaming or other spam links.\nRecommended movie player VLC PLAYER.",
  "parsed": {
    "xt": "urn:btih:610c3141db0c15eb07adbe91509a72cb374d6b9f",
    "dn": "Pacific Rim (2013) DVDRip XviD-MAX",
    "tr": [
      "udp://exodus.desync.com:6969",
      "udp://open.demonii.com:1337",
      "udp://tracker.coppersurfer.tk:6969",
      "udp://tracker.openbittorrent.com:80"
    ],
    "infoHash": "610c3141db0c15eb07adbe91509a72cb374d6b9f",
    "infoHashBuffer": {
      "type": "Buffer",
      "data": [
        97,
        12,
        49,
        65,
        219,
        12,
        21,
        235,
        7,
        173,
        190,
        145,
        80,
        154,
        114,
        203,
        55,
        77,
        107,
        159
      ]
    },
    "name": "Pacific Rim (2013) DVDRip XviD-MAX",
    "announce": [
      "udp://exodus.desync.com:6969",
      "udp://open.demonii.com:1337",
      "udp://tracker.coppersurfer.tk:6969",
      "udp://tracker.openbittorrent.com:80"
    ],
    "urlList": []
  },
  "previous": 40,
  "peers": 12,
  "last_updated": "2016-12-27T01:54:05.683Z"
}